<?xml version="1.0"?><svg width="331.69800000000004" height="303.825" xmlns="http://www.w3.org/2000/svg">
 <title>Michigan SVG</title>
 <defs>
  <radialGradient r="0.572433" spreadMethod="pad" id="svg_1">
   <stop offset="0" stop-color="#007fff"/>
   <stop offset="1" stop-opacity="0.996094" stop-color="#00007f"/>
  </radialGradient>
  <radialGradient cy="0.5" cx="0.5" r="0.572433" spreadMethod="pad" id="svg_2">
   <stop offset="0" stop-color="#007fff"/>
   <stop offset="1" stop-opacity="0.996094" stop-color="#00007f"/>
  </radialGradient>
  <radialGradient gradientTransform="translate(0.03793103448275864,0) scale(0.9241379310344827,1)" cy="0.5" cx="0.5" r="0.572433" spreadMethod="pad" id="svg_3">
   <stop offset="0" stop-color="#007fff"/>
   <stop offset="1" stop-opacity="0.996094" stop-color="#00007f"/>
  </radialGradient>
  <radialGradient gradientTransform="translate(0.96,0) scale(-0.92,1)" cy="0.5" cx="0.5" r="0.572433" spreadMethod="pad" id="svg_4">
   <stop offset="0" stop-color="#007fff"/>
   <stop offset="1" stop-opacity="0.996094" stop-color="#00007f"/>
  </radialGradient>
  <radialGradient gradientTransform="translate(0.040000000000000036,0) scale(0.9199999999999999,1)" cy="0.5" cx="0.5" r="0.572433" spreadMethod="pad" id="svg_5">
   <stop offset="0" stop-color="#007fff"/>
   <stop offset="1" stop-opacity="0.996094" stop-color="#00007f"/>
  </radialGradient>
  <radialGradient gradientTransform="translate(0.96,0) scale(-0.92,1)" cy="0.5" cx="0.5" r="0.572433" spreadMethod="pad" id="svg_6">
   <stop offset="0" stop-color="#007fff"/>
   <stop offset="1" stop-opacity="0.996094" stop-color="#00007f"/>
  </radialGradient>
  <radialGradient gradientTransform="translate(0,0.06551724137931036) scale(1,0.8689655172413793)" r="0.572433" spreadMethod="pad" id="svg_7">
   <stop offset="0" stop-opacity="0.996094" stop-color="#5656ff"/>
   <stop offset="1" stop-opacity="0.996094" stop-color="#00007f"/>
  </radialGradient>
  <radialGradient cy="0.5" cx="0.5" gradientTransform="translate(0,0.07241379310344831) scale(1,0.8551724137931034)" r="0.478784" spreadMethod="pad" id="svg_8">
   <stop offset="0" stop-opacity="0.996094" stop-color="#5656ff"/>
   <stop offset="1" stop-opacity="0.996094" stop-color="#00007f"/>
  </radialGradient>
  <radialGradient r="0.456925" gradientTransform="translate(0.07241379310344825,0) scale(0.8551724137931035,1)" spreadMethod="pad" id="svg_9">
   <stop offset="0" stop-opacity="0.996094" stop-color="#5656ff"/>
   <stop offset="1" stop-opacity="0.996094" stop-color="#00007f"/>
  </radialGradient>
  <linearGradient spreadMethod="pad" id="svg_10">
   <stop offset="0" stop-opacity="0.996094" stop-color="#5656ff"/>
   <stop offset="1" stop-opacity="0.996094" stop-color="#00007f"/>
  </linearGradient>
  <linearGradient y2="0" x2="1" y1="0" x1="0" spreadMethod="pad" id="svg_11">
   <stop offset="0" stop-opacity="0.996094" stop-color="#00007f"/>
   <stop offset="0.472656" stop-opacity="0.996094" stop-color="#5656ff"/>
   <stop offset="1" stop-opacity="0.996094" stop-color="#00007f"/>
  </linearGradient>
 </defs>
 <g>
  <title>Layer 1</title>
  <path id="path1390" fill="#5656ff" d="m0.861497,48.392498c2.889,-2.612 6.622,-3.117001 11.488,-3.895c4.867001,-0.778 6.423,-2.917999 8.372,-4.867001c1.948,-1.947998 6.425001,-6.230999 11.098,-4.479c4.673004,1.752003 10.320004,-0.389999 12.072002,-1.751999c1.751999,-1.362 4.670002,-1.752001 6.035,-4.089001c1.365002,-2.336 2.139999,-2.339001 4.673,-2.143s4.673,-1.752001 5.063,-3.504002c0.389999,-1.751999 1.751999,-3.695999 3.505001,-4.476999c1.751995,-0.781 2.922993,-1.752001 3.894993,-3.311c0.972,-1.558 2.725006,-1.949 3.699005,-2.143s2.532997,-1.166 5.062996,-3.892c2.529999,-2.727 4.085999,-5.061 7.203003,-5.257s3.308998,-0.78 4.672997,-1.948c1.365005,-1.168 4.869003,-2.336 9.736,-1.946c4.867004,0.39 2.334,0.002 4.867004,0.39c2.531998,0.388 2.337997,3.112 -0.388,3.308c-2.727005,0.196 -2.919998,0.778 -5.063004,0.584c0.194,1.558 -0.584,2.336 -2.335999,3.504001c-1.751999,1.167999 -3.698997,2.139999 -4.866997,3.504999c-1.168007,1.364 -0.780006,1.948 -2.143005,2.142c-1.362,0.194 -2.142998,0.778 -2.335999,2.531001c-0.194,1.751999 -0.389999,0.971998 -1.167999,1.751999c-0.778,0.781 -0.388,0.778 -0.778,2.336c-0.389999,1.559 -0.778,0.195999 -1.751999,0.975c-0.973999,0.778 -0.779999,2.917999 -0.973999,3.698s-0.778,0.976999 -2.529999,1.365c-0.390007,2.529999 -0.780006,3.698 -1.364006,4.867001c-0.584,1.168001 -0.974998,2.334002 -0.584,4.283003c0.389999,1.947998 0.195999,1.751999 -0.194,2.726997s0.388,1.945999 1.362,0.778c0.974007,-1.167999 0.584,-2.529999 1.752007,-3.697998c1.167999,-1.167999 3.116997,-2.141003 3.894997,-3.699001c0.778,-1.559002 2.723999,-1.364002 3.698997,-2.727001c0.973999,-1.362001 3.701004,-0.778 1.557999,0.584c-2.141998,1.362 -1.945999,1.75 -2.919998,1.945999s-0.388,0.584003 -0.778,1.752003c-0.389999,1.167999 -1.364998,0.778 -0.389999,1.167999c0.973999,0.389999 0.779999,0.389999 1.557999,-0.194c0.778,-0.584 0.388,0.195999 0.778,-1.362c0.389999,-1.558001 0.194,-1.556002 1.751999,-1.752001c1.559006,-0.196001 3.895004,-0.388 6.425003,0c2.529999,0.387999 1.556,0.581999 2.529999,0.387999c0.974998,-0.193998 0.972,0.586002 0,1.949001c-0.972,1.362 -0.973999,2.727001 0,1.752003c0.974998,-0.974003 1.167999,0 1.559006,-1.558002c0.389999,-1.558998 -0.388,-1.364998 0.389999,-1.558998c0.778,-0.194 0.581993,-0.196003 0.972,1.167999c0.390999,1.363998 1.167999,1.754002 1.167999,0.779999s-1.157005,-1.880001 -0.388,-1.751999c2.335999,0.388 3.501999,-0.778002 3.891998,1.167999c0.390999,1.945999 0.778,2.917999 2.920998,2.723999s2.139999,0.393002 2.335999,2.533001s0.586006,1.167999 1.948006,2.336002c1.362,1.167999 1.360001,0.584 1.556,1.945999s-0.779999,1.75 0.584,1.945999c1.364998,0.195999 1.948997,0.585999 2.726997,1.948002c0.778,1.362 1.751999,1.167999 1.751999,4.088997s3.311005,2.528 4.089005,2.725002c0.778,0.195999 3.113998,0.391998 4.282997,-0.388c1.168007,-0.779999 2.532997,0 4.284996,-1.557999c1.751999,-1.559002 3.891998,-1.752003 3.697998,0.584s2.139999,1.947998 3.115005,2.142998c0.973999,0.194 1.363998,0.389999 2.141998,0c0.778,-0.389999 -0.001999,-0.001999 0.778,-1.364998c0.779999,-1.362 0.779999,-1.946003 1.949005,-0.778c1.167999,1.167999 0.972,1.167999 2.139999,1.751999c1.167999,0.584 1.947998,1.945999 2.533005,1.362c0.584,-0.584 0.972,-0.972 1.556,-2.529999c0.584,-1.558002 1.556,-2.530003 2.92099,-2.920002c1.363998,-0.389999 1.363998,-2.529999 2.727005,-2.529999c1.362,0 2.143005,-0.584 2.143005,-0.584s0.074997,-0.549999 1.751999,-1.558002c0.972,-0.584 2.334,-1.556 3.30899,-1.945999s1.363998,-0.779999 1.363998,-1.558998c0,-0.778 1.556,-1.362 2.725006,-1.167999c1.167999,0.194 4.617996,-0.094002 6.972,-0.714001c2.354996,-0.621002 8.798996,-0.372002 10.660004,-0.372002c1.862,0 7.807999,0 11.778,-2.853001c3.970001,-2.851997 6.078003,-2.974998 8.556,-2.974998c2.478989,0 2.481995,0.494999 3.597,-0.249001c1.112991,-0.743999 3.097992,-1.485001 1.610001,1.985001c-1.487,3.471001 -1.113007,9.421001 -0.990005,11.280998c0.123001,1.859001 1.487,1.859001 1.733994,2.108002c0.246002,0.249001 5.585007,0.369999 6.201004,0.124001c0.615997,-0.247002 -0.003998,0.994999 0.615997,1.241001c0.621002,0.245998 1.615005,0 3.227005,-0.744003c1.610001,-0.743999 2.600998,-2.602997 3.964996,-2.48c1.365005,0.123001 2.359009,0.995003 2.359009,2.729c0,1.734001 1.237,1.98 3.098999,0.246002c1.862,-1.734001 1.240997,-0.865002 2.108002,-0.990002s0,-0.867001 0.621002,-1.736c0.619995,-0.868999 1.609985,-0.618 2.230988,-0.743999c0.62001,-0.125 0.246002,-0.374001 0.743011,-1.241001c0.498001,-0.867001 0.625,-0.249001 1.117996,0s0.615997,0.868999 1.235992,1.613003c0.621002,0.743999 0.867004,1.484997 1.365005,2.354c0.496994,0.869999 1.363998,2.726997 1.983994,3.718998c0.621002,0.993 0.493011,1.485001 0.37001,2.230999s1.246002,1.367001 1.61499,0.125s0.985001,-0.622997 -0.127991,-1.985001c-1.113007,-1.362 -1.359009,-1.859997 -1.85701,-2.726997c-0.496994,-0.867001 -0.870987,-1.487999 -0.993988,-2.232002c-0.124008,-0.743999 0,-0.245998 -0.867004,-1.115997c-0.867004,-0.868999 -1.360001,-0.743999 -1.113007,-1.736c0.246002,-0.992001 0.871002,-0.370003 1.363998,-1.239002c0.492004,-0.868999 0.743011,-1.487999 2.478012,-0.743999c1.733994,0.743999 3.837997,0.369999 2.477997,2.478001c-1.359009,2.108002 -2.600998,3.349998 -1.113007,4.959999c1.488007,1.611 2.359009,3.594002 1.985001,4.463001c-0.373993,0.869999 0.123001,1.860001 0.37001,2.48c0.245987,0.620998 0.126999,1.612999 -1.734009,1.736c-1.862,0.123001 -3.847,2.108002 -1.862,2.603001c1.985001,0.494999 1.488007,0.498001 2.852997,0.371998s1.487,1.858997 2.231003,1.858997s4.576996,-0.517998 1.487,1.115997c-2.108002,1.116005 1.985001,3.347 2.729004,3.719002c0.742996,0.372002 0.373993,0.867004 1.363998,1.238998c0.990005,0.372002 1.363998,-0.371994 2.108002,0.249001c0.742996,0.621002 0.994003,1.611 0,2.231003c-0.994995,0.621002 0.246002,0.621002 -1.240997,0.249001c-1.488007,-0.372002 -1.615997,-2.108002 -2.231003,-0.372002c-0.615997,1.736 -1.240997,1.363998 -2.231003,0.249001s-1.487991,-1.362 -3.222,-0.123001c-1.733994,1.238998 -2.358994,0.493004 -4.093994,-0.125c-1.734009,-0.618996 -2.231003,-0.249001 -3.098999,0.372002s-1.985001,0.498001 -1.487,1.240997c0.496994,0.744003 1.860992,1.734001 0.619995,1.611c-1.240997,-0.123001 -2.729004,0 -2.231003,-1.115997c0.498001,-1.115997 1.862,-0.869003 0.744003,-2.108002c-1.117996,-1.238998 -1.862,-0.372002 -2.604996,0c-0.744003,0.372002 -2.725006,1.116005 -2.725006,-0.372002s-0.501999,-0.866997 -1.615005,-0.866997s-2.60199,1.113998 -2.60199,0.124001s0.246994,-1.860001 -0.743011,-0.744003s-1.112991,0.619003 -0.98999,2.231003c0.123001,1.612999 -1.369003,1.736 -0.994995,3.473s0.496994,1.240997 0.373993,2.851997s-0.123001,1.487999 0.744003,1.487999s-0.123001,1.859001 -0.867004,1.611c0,0 -2.729004,-0.001999 -3.227005,-0.992996c-0.496994,-0.989998 -1.983994,-2.106003 -2.108002,-2.477997c-0.122986,-0.372002 -0.250992,-0.495003 -1.363998,-0.744003c-1.112991,-0.249001 -1.117996,-0.497002 -1.610001,-1.240997c-0.492996,-0.744003 0.128006,-0.741005 -0.98999,-0.990005c-1.117996,-0.249001 -1.606003,-0.123001 -0.990005,-0.991997c0.615997,-0.870003 0.497009,-0.619003 1.487,-0.372002s3.098999,-0.247002 0.867004,-1.115997s-2.359009,0.372002 -3.847,-0.249001c-1.488007,-0.621002 -2.606003,-0.124001 -3.843002,-0.867004s-1.363998,-1.363998 -3.718994,-0.992996c-2.354004,0.372002 -3.723999,-0.497002 -4.960999,-1.363998c-1.236008,-0.867004 -4.335007,0 -5.453003,0.249001c-1.117004,0.249001 -2.605011,-0.370003 -4.093002,1.985001c-1.488007,2.353996 -2.848007,5.578995 -6.817001,5.206993c-3.970993,-0.371994 -3.227005,-0.494995 -5.089005,0.993004c-1.860992,1.487 -4.466995,1.489998 -3.472992,-0.124001c0.994995,-1.612999 0.994995,-2.231003 -1.113007,-1.736s-0.619995,1.240997 -3.100998,1.364998c-2.479996,0.123001 -1.613007,0.618004 -2.729004,0.990005c-1.115997,0.371994 -0.990997,0.001999 -1.983002,-0.247002c-0.991989,-0.249001 -0.620987,-0.123001 -1.115997,0.743996c-0.494995,0.867004 -0.991989,0.493004 -2.108002,0.990005c-1.115997,0.498001 -1.612991,1.612999 -1.735992,3.100998c-0.124008,1.487999 -0.247009,5.205002 -2.477997,5.330002s0,1.715996 -3.719009,2.108002c-2.356995,0.248993 -1.610992,1.117996 -1.487,1.240997c0.123001,0.124001 -0.127991,0.989998 -0.746994,0.989998c-0.617996,0 -1.363998,0.746002 -1.115997,1.612999c0.248993,0.867004 -0.246002,1.487999 -0.990005,1.611c-0.744003,0.123001 -0.744003,0.990005 -0.621002,1.983002c0.124008,0.991997 0.621002,1.240997 -1.238998,-0.123001c-1.858994,-1.364998 -2.852005,-3.100998 -0.992996,-2.852997c1.860001,0.249001 1.238998,-0.493004 1.238998,-1.362c0,-0.870003 1.102005,-1.246002 0.992004,-2.231003c-0.249008,-2.234001 3.718994,-0.375 2.479996,-2.357002c-0.912994,-1.459999 0.992996,-3.596001 1.487991,-4.339996c0.49501,-0.744003 -1.366989,-3.345001 -3.100998,-0.618004s-3.472992,3.101006 -4.462997,2.231003c-2.285995,-2.008003 -3.223999,-2.559998 -3.098999,0.744003c0.124008,3.222 -0.494995,2.600998 -1.115997,3.469994c-0.621002,0.870003 -1.613007,1.734001 -1.363998,2.604004s-0.621002,0.621002 -2.231003,0.992996c-3.791992,0.875999 -1.720993,-0.036995 -2.354996,-2.354996c-0.125,-1.985001 -1.074005,-3.662003 0.98999,-5.209c0.993011,-0.744003 -0.248993,-6.570999 -1.735992,-2.604004c0,0 -1.115997,1.367004 -1.115997,2.729004c0,1.362 -1.736008,0.618996 -1.487,3.471001c0.248993,2.851997 -0.744003,3.847 -2.35701,5.458c-1.612991,1.611 -3.841995,1.985001 -3.718994,4.216995s-2.357002,1.608002 -2.357002,4.709c0,3.101006 -1.860001,3.722 -1.860001,5.209c0,1.488007 -1.362,3.220001 -1.981995,4.338005c-0.621002,1.117996 -2.106003,2.602997 -2.231003,4.338997s-0.993004,3.098999 -2.108002,4.462997c-0.882996,1.080002 -3.713997,3.174004 -3.725998,6.245003c-0.001999,0.604004 -2.443001,1.007996 -2.919998,0.292007s-4.280006,-4.249008 -2.213005,-6.396004c2.067001,-2.147003 2.464005,-4.454002 2.624001,-6.284004s-1.193001,-3.580002 -2.943001,-1.830002s-6.682999,2.385002 -5.169998,-1.909996c1.513,-4.293999 3.897003,-5.324997 1.432999,-7.792c-2.463997,-2.466003 -0.476997,-4.054001 0.080002,-5.567001c0.556999,-1.513 -1.964996,-6.875 -5.783997,-6.875s-4.073006,0.370003 -5.841003,-0.072998c-1.374001,-0.345001 -2.135002,-3.060005 -1.022003,-4.015999s1.316002,-9.378006 -5.840996,-8.104004c-7.156998,1.273003 -15.472,0.217003 -17.858002,-0.5c-2.386993,-0.715996 -5.566994,1.036003 -7.793995,-1.510002c-2.227001,-2.545998 -5.736,-3.627998 -9.394001,-4.341995c-2.284,-0.445 -2.767998,-1.830002 -6.910999,-2.896004c-2.784,-0.716995 -6.098999,-1.792999 -9.882,-3.237999c-5.549002,-2.117996 -6.936003,-0.803001 -8.177002,-2.043999c-1.99,-1.989998 -4.892,-1.971001 -6.789999,-2.482002c-2.546,-0.686993 -7.815001,-0.932995 -6.425001,-4.307995c1.533,-3.723999 -1.021999,-6.937 -2.118,-7.301998c-1.625,-0.541 -2.891,-0.493 -5.913999,-1.605999c-3.028,-1.109001 -3.112,-2.560001 -2.585,-3.037003z"/>
  <path id="path1392" fill="#5656ff" d="m145.331497,51.116497c0,0.780003 -0.389999,1.365002 0.584,1.559002s0.973999,-0.389999 1.55899,-1.559002c0.584015,-1.167999 0.972,-1.359997 0.388,-2.139999s0,-0.585999 -1.167999,-0.779999c-1.167999,-0.194 -1.556,-0.582001 -1.556,0.779999s-0.194,0.584 0,1.362c0.193008,0.778 0.193008,0.778 0.193008,0.778z"/>
  <path id="path1394" fill="#5656ff" d="m257.500488,71.027496c0,1.240997 0.994995,1.859001 1.984985,0.621002c0.990021,-1.239006 1.236023,-1.485001 2.477997,-1.611s2.113007,-0.993004 1.862,-1.985001s-0.743988,-0.742004 -1.487,-0.867004c-0.743988,-0.125999 -0.866974,-1.241997 1.610016,-0.992996c2.477997,0.249001 3.104004,0.617996 4.093994,1.859001s-0.005005,1.733994 1.235992,2.230995c1.240997,0.498001 3.102997,1.116005 1.985016,2.108002c-1.118011,0.992996 -0.739014,1.363998 -0.98999,2.108002c-0.251007,0.743996 1.235992,0.743996 -1.241028,0.494995c-2.478973,-0.249001 -2.107971,-0.124001 -2.975983,-0.743996s0.118011,-0.621002 -1.738007,-0.372002c-1.856995,0.249001 -1.488007,-0.621002 -3.098999,0.123001c-1.610992,0.743996 -1.36499,1.240997 -2.355011,0.498001c-0.98999,-0.744003 -0.25,-0.867004 -1.363983,-1.116005c-1.113007,-0.249001 -1.481995,-0.124001 -1.113007,-1.115997c0.370026,-0.990997 1.113007,-1.238998 1.113007,-1.238998z"/>
  <path id="path1396" fill="#5656ff" d="m227.004501,81.070496c0,0.866997 1.231003,1.485001 1.359009,0.618996c0.127991,-0.867996 -1.359009,-2.229996 -1.359009,-0.618996z"/>
  <path id="path1398" fill="#5656ff" d="m230.594498,84.913498c1.132004,0.564995 1.117996,0.494995 1.862,1.858994c0.742996,1.364006 1.737991,1.985001 2.604996,1.736s2.227005,-0.125 2.848007,-0.992996c0.619995,-0.866997 1.117996,-1.611 -0.493011,-1.982002c-1.610001,-0.372002 -2.610001,-1.115997 -3.22699,-1.487999c-0.615005,-0.372002 -1.984009,-0.125 -3.098007,-0.498001c-1.112991,-0.370995 -1.737991,0.745003 -0.496994,1.366005z"/>
  <path id="path1400" fill="#5656ff" d="m190.058502,95.242493c0.078003,-2.226997 0.401001,-1.353996 1.27301,-1.829994c0.871994,-0.477005 0.237,-1.191002 0.237,-2.067001c0,-0.875999 2.230988,-1.989006 1.988998,1.589996c-0.241013,3.580002 0.876999,1.989998 1.272995,1.910004c0.397003,-0.080002 0.237,2.146996 -0.716995,2.703995c-0.953003,0.556999 -0.314011,2.069 -2.623001,1.830002c-2.309998,-0.238998 -1.429001,-2.069 -1.27301,-2.545998c0.156998,-0.478004 -0.158997,-1.591003 -0.158997,-1.591003z"/>
  <path id="path1402" fill="#5656ff" d="m181.785492,100.968498c1.593002,0 1.113998,2.942993 -0.158997,2.783997s-0.794006,-2.783997 0.158997,-2.783997z"/>
  <path id="path1404" fill="#5656ff" d="m187.352493,90.311493c0.729996,0.050003 0.880997,2.227005 0.082001,2.067001c-0.798004,-0.159996 -1.194992,-2.143997 -0.082001,-2.067001z"/>
  <path id="path1406" fill="#5656ff" d="m194.673492,85.855492c-1.082001,-0.699997 -1.985001,1.034004 -0.953995,1.670006s2.544998,-0.637001 0.953995,-1.670006z"/>
  <path id="path1408" fill="#5656ff" d="m178.522491,89.038498c0.798996,0.065994 1.278,-1.193001 0.242004,-1.193001s-1.199997,1.112999 -0.242004,1.193001z"/>
  <path id="path1410" fill="#5656ff" d="m174.785492,127.851494c1.19101,1.510002 2.227997,3.021004 2.067001,0.954002c-0.158997,-2.067001 0.397003,-1.987 -0.158997,-2.543999c-0.557999,-0.556999 -0.072998,-1.433006 -1.429001,-1.353004c-1.354996,0.080002 -1.354996,1.830002 -0.479004,2.943001z"/>
  <path id="path1412" fill="#5656ff" d="m172.480499,132.704498c-0.812012,0.809998 -2.313004,0.317001 -1.354004,-0.876007c0.957993,-1.192993 2.070999,0.162003 1.354004,0.876007z"/>
  <path id="path1414" fill="#5656ff" d="m163.005493,303.825012c0.080002,-2.705994 2.466003,-7.794006 5.647003,-11.45401c3.181,-3.658997 5.406998,-15.108002 5.964005,-22.428986c0.261002,-3.39502 0.770996,-7.022003 0.917999,-10.084991c7.593002,-2.117004 2.440994,-1.314026 -0.072998,-1.679016c0.031998,-1.169006 -0.160004,-5.466995 -0.685013,-7.729996c-0.378998,-1.628998 -1.728989,-5.128998 -1.286987,-7.237c2.773987,-0.365005 2.628998,-1.533005 -0.990005,-1.109009c-0.542999,-1.552002 -1.158997,-3.039001 -1.936996,-4.621994c-1.990005,-4.057999 -0.878998,-2.943008 0.315994,-3.341003c1.195999,-0.395996 3.737,-3.582001 0,-1.988998s-2.705994,0 -3.5,-1.272995s-1.513,-1.906998 -1.75,-2.861008s0.796005,-1.751999 1.432999,-1.988998c0.636002,-0.237 1.033997,-2.386993 -0.556992,-1.671005c-1.590012,0.71701 -2.307007,-0.638992 -2.784012,-2.705994c-0.47699,-2.065994 -1.830002,-5.479996 -2.942993,-6.835007c-1.113007,-1.354996 -3.261002,-5.015991 0.716003,-8.354996c3.97699,-3.341003 2.543991,-8.584 2.067001,-10.098999c-0.477005,-1.515991 -1.271011,-3.660004 -2.147003,-4.613998c-0.876007,-0.953003 -1.96701,-2.847992 -1.589996,-3.106995s2.858994,2.149002 1.763992,-0.990005c4.162003,-5.330002 -1.990005,0.384003 -2.117996,0.145996c-0.235001,-0.437988 -0.464996,-0.804001 0.037003,-1.306c0.793991,-0.793991 2.224991,-1.350998 3.100998,-3.020996c0.875992,-1.669998 2.149002,-3.020996 2.705994,-5.567001c0.557007,-2.546997 1.51001,-3.181 2.145996,-5.169998c0.637009,-1.990005 0.399002,-2.701996 1.75,-2.623993c1.352005,0.076996 2.544006,-1.196014 0.95401,-1.753006c0,0 -1.589996,0.087006 -1.033005,-2.222c0.557007,-2.309998 0.477005,-3.020996 0.315994,-4.216995c-0.158997,-1.195007 -0.313995,-3.582001 0.399002,-3.423004c0.715012,0.160004 2.784012,0.319 0.557007,-1.350998c-2.229004,-1.669998 -0.876007,-1.514999 -0.956009,-1.988998c-0.078995,-0.475006 -0.237,-0.479004 -0.952988,-0.794006c-0.71701,-0.317001 -0.240005,-2.940994 1.431,-1.511002c1.669998,1.431 2.231003,1.587997 3.421997,1.511002c1.190994,-0.080002 2.860992,-1.593002 0.634995,-1.990005c-2.227997,-0.396988 -2.463989,-0.556992 -2.463989,-0.953995s-0.879013,-1.190994 -1.593002,-0.873993c-0.715012,0.317001 -1.438004,-1.985001 0.478989,-1.113998c0.872009,0.396988 0.95401,-0.157013 1.114014,-0.557007c0.158997,-0.399002 1.509995,-0.634003 1.669998,0.080002c0.158997,0.714005 0.395996,1.030991 0.556992,1.748001c0.158997,0.716003 0.794006,1.112991 1.511002,0.79599c0.716003,-0.316986 1.751999,-0.715988 0.876007,-1.75s-0.722,-0.159988 -1.355011,-0.636993c-0.634995,-0.477005 -0.396988,-0.953995 -0.077988,-1.509995c0.319992,-0.557007 0.00499,-1.19101 0.319992,-2.624008c0.313995,-1.432999 0.479004,-3.339996 -0.160004,-4.056992c-0.638992,-0.71701 -0.159988,-3.101013 0.794006,-2.863998s2.468994,1.587997 1.753006,1.431c-0.71701,-0.157013 -1.355011,1.274994 -0.640015,1.513c0.71701,0.237 2.310013,0.713989 2.866013,0.237s1.026001,-1.51001 0.154999,-2.387009c-0.872009,-0.875992 -0.71701,-2.386002 -0.237,-3.022995c0.478989,-0.637009 1.194992,-0.796005 1.988998,0.080002c0.793991,0.875992 1.748001,0.633987 1.748001,1.589996s0.953003,1.751999 1.272003,0.240005c0.319992,-1.513 0.639999,-2.307007 1.035995,-2.864014c0.397003,-0.556992 0.953995,-2.306992 1.906998,-2.306992c0.953995,0 0.479004,-0.554001 0.479004,-2.067001s1.035995,-2.382004 1.669998,-3.337997c0.634995,-0.956001 0.793991,-2.466003 1.030991,-3.5s1.036011,-1.590004 1.990005,-1.75c0.953003,-0.160004 1.427994,0.478996 0.475006,1.272995c-0.95401,0.793999 -1.350998,1.592003 -0.475006,2.862999s0.876007,2.943001 0.395996,3.896996c-0.478989,0.95401 -2.705994,3.183014 -1.112991,3.340012c1.593002,0.15799 1.429001,1.352997 0.634995,2.783997s-1.748001,3.339996 -1.190994,5.487s0.561996,2.942993 1.432999,3.419998c0.871994,0.477005 0.237,0.554001 0.953995,-0.160004c0.71701,-0.713989 1.108002,-1.270996 1.587997,0.399002c0.479004,1.669998 -0.076996,1.270996 1.195007,0.714005c1.272995,-0.557007 1.268997,-1.348007 1.352005,-2.384003c0.082001,-1.035995 0.952988,-1.272995 1.432999,-2.306992s0.478989,-1.590012 0.716995,-2.387009c0.235992,-0.796005 1.272003,-0.873993 1.509995,1.113007s0.160004,2.780991 1.27301,2.623993s0.94899,-0.634003 1.190994,-0.793991c0.240997,-0.160004 0.475006,0.156998 0.953003,0.713989c0.479004,0.557007 0.804001,0.95401 0.959,0c0.153992,-0.953995 -0.722,-1.431 -1.516006,-1.987991c-0.793991,-0.557007 -1.268997,-1.033005 -1.030991,-2.227005s0.556992,-1.352997 0,-2.386993s-0.794006,-0.794006 -1.113007,-1.51001c-0.319,-0.716995 -0.319,-1.751999 -0.319,-3.182999s-0.871994,-2.940994 0.082001,-3.020996c0.953995,-0.080002 1.587997,0.716003 1.748001,2.227005c0.158997,1.509995 0.634003,1.906998 0.634003,3.100998s0.242004,5.48999 1.035995,5.48999s1.268997,-1.115997 1.190002,-2.54599c-0.076996,-1.431 -0.634003,-2.227005 -0.475006,-3.897003c0.160004,-1.669998 0.083008,-3.263 -1.350998,-5.25c-1.432999,-1.987 -2.86499,-3.654999 -2.86499,-5.248001c0,-1.592003 -0.95401,-4.216003 0.319,-5.806999s2.22699,-3.897003 3.737,-1.590004s1.432999,1.351006 1.988998,1.907005s1.272995,1.350998 1.112991,2.306999c-0.158997,0.956001 -0.395996,1.751999 0.397003,2.069c0.794006,0.317001 1.751999,0.953995 1.593002,-0.240005c-0.160004,-1.192993 -0.160004,-0.955994 -0.479004,-1.909996s0,-1.193001 -0.716003,-1.510002c-0.716995,-0.317001 -0.634995,-1.907997 0.639008,-0.874001c1.272003,1.034004 1.112991,0.872002 2.067001,1.748001c0.953003,0.875999 4.535004,0.083 2.386002,-0.793999c-2.14801,-0.875999 -1.751999,-1.352997 -1.751999,-1.910004s-0.396011,-0.319 -1.907013,-0.636993c-1.510986,-0.317001 -2.230988,-0.160004 -2.705994,-1.034004c-0.475006,-0.874001 -0.237,-1.513 -1.190994,-1.273003c-0.953003,0.240005 -0.159012,-1.268997 0.793991,-1.747993c0.95401,-0.479004 1.671005,-1.114006 3.104004,-0.796005c1.432999,0.317001 1.988998,-0.398994 3.5,-0.159996c1.511002,0.238998 2.063004,0.001999 2.860992,-0.874001s1.757004,-0.795998 0.241013,-1.75c-1.514999,-0.954002 -0.639008,-0.956001 -0.639008,-1.273003c0,-0.317001 -0.313995,-0.159996 -1.587997,0.080002s-0.561996,1.352997 -2.309006,-0.556999c-1.748001,-1.910004 -1.98999,-2.467003 -2.546997,-4.137001c-0.556992,-1.669998 -1.748001,-4.850998 0.716995,-6.681c2.464005,-1.830002 3.49501,-2.704002 4.134003,-3.5c0.639999,-0.795998 1.27301,-1.75 0.160004,-2.387001s0.397003,-1.75 2.227005,-1.112999c1.830002,0.636002 2.067001,0.319 3.020996,0.238998c0.953003,-0.080002 0.957993,0.319 0.798004,-1.033997c-0.158997,-1.353004 0.552994,-2.783005 3.259003,-0.160004c2.705994,2.624001 3.737,1.669998 4.850998,2.227005s2.865997,1.268997 3.582001,2.383995c0.716995,1.116005 3.098999,1.432999 5.011002,0.399002s4.937988,-0.397003 7.081985,1.193001c2.146011,1.589996 2.300003,1.985001 2.542007,4.133995s1.675003,3.580002 5.572006,3.420006c3.895996,-0.160004 4.376007,-0.083 5.886993,1.987c1.51001,2.069 3.975006,1.591995 5.170013,1.830002s3.106995,1.352997 4.457977,1.75c1.35202,0.396996 2.067017,1.270996 2.861023,0.713997s1.43399,-0.556999 2.148987,-0.397003c0.71701,0.160004 1.907013,1.036003 1.031006,1.433006s-0.237,1.352997 1.03598,1.113998c1.27301,-0.240005 1.511017,-0.796005 1.351013,0.953995c-0.158997,1.75 -0.067993,0.956001 0.246002,2.069c0.315002,1.114006 0.393005,1.351006 1.428986,2.624001c1.036011,1.273003 1.19101,1.351006 2.067017,2.784004c0.876007,1.432999 1.514984,3.100998 -0.078003,3.419998c-1.59201,0.319 -1.82901,0.317001 -2.385986,1.75c-0.558014,1.432999 -1.511017,1.828003 -2.228027,2.463997c-0.715973,0.637001 -0.395996,2.227005 1.990021,4.137001c2.385986,1.910004 4.057007,3.421997 5.406982,4.693008s1.670013,6.043991 1.907013,8.270996c0.237,2.227005 0.63501,4.132004 -0.71701,5.724991c-1.15799,1.369003 -0.798004,3.146011 -0.268982,4.025009c0.086975,0.143997 0.177979,0.263 0.268982,0.352005c-5.041992,2.881989 -1.391998,1.932999 0.799011,2.662994c0.401001,1.203995 1.264984,2.750992 1.113007,3.541c-0.319,1.669998 -1.433014,3.181 -1.59201,3.181c-1.570007,-0.005005 -1.510986,0.953003 -1.510986,2.386993c0,0.794006 -0.95401,1.51001 -1.27301,0.716003s-0.237,-1.983994 -0.794006,-2.067001c-0.557007,-0.082001 0.242004,-0.638992 -0.557007,-0.082001s-1.510986,0.237 -1.27298,2.227997c0.237,1.989014 -1.433014,3.098999 -1.272003,5.407013c0.158997,2.30899 1.354004,5.963989 -1.90802,7.953995c0,0 -2.148987,0.483002 -2.86499,2.628006c-0.71701,2.145996 -1.902985,0.232986 -3.417999,1.268997c-1.515991,1.035995 -4.144012,1.830002 -4.299011,4.216995s-0.875977,2.468994 -0.953979,3.582001c-0.076996,1.113007 0.242004,4.139999 -0.475006,5.171005c-0.716003,1.030991 0.078003,3.89299 1.510986,5.483994c1.433014,1.593002 2.943024,3.746994 3.897003,3.587006c0.953003,-0.159012 3.335999,-1.669998 4.134003,-0.319c0.799011,1.350998 0.959015,1.593002 1.355011,2.386993c0.397003,0.794006 1.186981,-0.154999 1.824982,-1.190994c0.639008,-1.035004 1.675018,-1.916 2.392029,-3.503998c0.715973,-1.588013 1.984985,-2.146011 2.860992,-2.305008c0.876007,-0.160004 2.22699,-3.024994 3.102997,-5.015991c0.876007,-1.989014 1.747986,-5.170013 2.546997,-5.489014c0.798004,-0.319 1.113007,-2.304993 1.433014,-3.181s0.870972,-0.237 1.350983,-0.953995c0.479004,-0.716003 0.562012,-2.231003 1.515991,-2.468994c0.953003,-0.237 2.304016,-0.072006 3.180023,-0.314011c0.876984,-0.241989 1.113983,-1.834991 1.43399,-1.911987s3.181,0.163986 3.737,-1.985001s8.277008,-4.294006 12.891998,2.942993c4.613007,7.237 4.608002,7.712006 5.088013,9.542007c0.478973,1.829987 0.715973,7.396988 1.592987,9.623993c0.876007,2.227997 4.144012,9.076996 4.618011,15.360001c0.474976,6.283997 1.824982,5.563004 2.144989,7.475006s0.395996,0.556992 -0.160004,1.354996s0.484009,1.511002 1.355011,1.272995c0.871979,-0.237 0.630005,2.227005 0.712006,2.943008c0.082001,0.715988 1.117981,2.230988 2.071991,2.86499c0.953003,0.63501 0.628998,4.057007 -0.242004,5.011002c-0.872009,0.95401 -0.867004,4.139008 -0.712006,6.681s0.634003,6.763 0.076996,8.27301s-0.313995,4.134995 -1.350983,4.453995s-1.984009,-0.315002 -2.46402,-1.587997c-0.478973,-1.27301 -4.221985,-1.985001 -4.85498,-1.113998c-0.63501,0.871994 -5.567017,2.623993 -3.578003,3.974991c1.98999,1.35199 0.639984,2.468994 -0.634003,3.423004s-1.592987,0.479004 -1.433014,3.104004c0.159027,2.623993 0.232025,2.463989 0.475006,3.895996c0.240997,1.433014 -1.195984,3.263 -4.139984,5.092987s-6.046021,1.355011 -6.443024,6.046997c-0.395996,4.690002 1.475006,8.716003 -0.423981,9.665009c-2.095001,1.050018 -1.565002,2.428009 -1.565002,3.222015s-0.397003,2.468994 -1.113007,2.705994c-0.71701,0.237 -1.19101,2.304993 -1.031006,2.623993c0.158997,0.319 -1.27298,0.552002 -1.98999,0.634003c-0.716003,0.082001 -0.721008,-0.240997 -1.515015,1.670013c-0.793976,1.911987 -0.957977,1.984985 -1.112976,2.942993c-0.154999,0.958984 0.087006,0.794983 -0.712006,1.43399s-0.160004,0.479004 -0.160004,0.479004l-133.802002,0.078003z"/>
  <path id="path1416" fill="#5656ff" d="m195.438004,135.369995c0.36499,-1.167999 0,-2.190002 0.729004,-2.847992c0.729996,-0.656998 1.752991,-0.876007 1.53299,0.291992c-0.218994,1.167999 -0.291992,1.460007 -0.584,2.335999c-0.291992,0.876007 -0.218994,1.022003 0,2.118011c0.220001,1.095001 -0.071991,1.167999 -0.511002,2.116989s-1.679993,2.556 -1.897995,1.679001c-0.218994,-0.875992 -0.656998,-1.313995 0.072998,-1.824997s0.802994,0.584 1.022003,-0.656998c0.218994,-1.240997 0.949005,-1.751999 0.218994,-1.824997c-0.729996,-0.072998 -1.313995,-0.219009 -0.94899,-0.803009s0.365997,-0.584 0.365997,-0.584z"/>
 </g>
</svg>